<svg xmlns="http://www.w3.org/2000/svg" width="235.165" height="93.42" viewBox="0 0 235.165 93.42">
  <g id="Capa_x0020_1" transform="translate(0.01 0.01)">
    <g id="_1831611106720" transform="translate(-0.01 -0.01)">
      <rect id="Rectángulo_3" data-name="Rectángulo 3" width="56.833" height="92.69" fill="#f49101"/>
      <path id="Trazado_1" data-name="Trazado 1" d="M338.261,208.065c.136-2.245,1.96-2.422,3.244-1.134,1.539,1.544,4.623,8.538,5.689,10.534,5.045,9.449,12.975,4.459,13.454,3.25.171-3.37.005.8-.5-1.644-.239-1.147,1.532-3,2.627-3.241-.145,8.425-8.125,10.738-13.446,5.376-2.035-2.05-3.212-4.283-4.655-7.527-2.965-6.661-4.294-4.382-6.409-5.615Zm26.308,3.1c-1.286-.719-.482-.556-1.785-3l-5.8-8.614c-2.483-3.844-4.964-8.945-2.144-13.982.568,1.328-.211,5.753.366,8.113,1.826,7.471,5.853,8.346,9.358,17.488Zm1.26-11.056a6.679,6.679,0,0,1,2.366,3.688C366.885,203.53,365.767,201.8,365.829,200.108Zm-15.1-13.8c.805.812,1.971,2.657.917,4.058Zm9.749-7.74c.064-.154.124-.337.181-.469s.11-.3.179-.447l1.11-1.786c1.656-2.544,1.5-4.9,2.41-6.984.677,1.881-.438,4.81-1.444,6.632l-2.436,3.055ZM350.236,163.6c8.257-2.73,12.369,10.022,3.962,12.674C345.907,178.884,341.841,166.37,350.236,163.6Zm-6.132,5.134c-.212-2.214.313-3.6,2.061-3.88l-1.523,3.1c-.291.659-.2.393-.538.778Zm2.419,13.3c.3,14.332-2.946,11.329,6.824,25.237,1.782,2.536,3.1,4.071,2.534,8.431-.923,7.153-4.881,7.7-9.084-.527-1.929-3.776-5.3-14.218-9.645-7.6-.175,2.443.65,4.749.777,7.367.37,7.582-1,11.979,6.724,18.168,8.3,6.651,18.893,2.215,22.9-3.787,7.675-11.505,5.755-25.714-5.345-35.428a14.452,14.452,0,0,1-5.5-11.13c14.817-6.043,10.084-25.5-3.649-26.351-16.5-1.028-19,21.768-6.536,25.624Z" transform="translate(-324.769 -150.638)" fill-rule="evenodd"/>
      <path id="Trazado_2" data-name="Trazado 2" d="M1824.214,1400.737c.661,6.476-2.694,7.6-9.946,6.892-6.794-.665-6.01-4.546-6.021-10.95-.013-7.782-2.218-14.846,11.773-13.335,3.248.35,3.239,1.342,4.073,3.911l11.2-.138a21.906,21.906,0,0,0-1.7-7.959c-1.333-2.86-2.074-3.052-5.846-4.043a52.6,52.6,0,0,0-18.268-.771c-13.76,2.04-13.259,12.139-12.848,26.4.431,15,7.733,16.308,23.514,16.024,7.308-.132,11.451-.4,13.859-6.2,1.478-3.561,2.366-13.826,1.172-17.764l-18.807-.031.143,7.546,7.7.424Z" transform="translate(-1730.62 -1323.518)" fill="#f49101" fill-rule="evenodd"/>
      <path id="Trazado_3" data-name="Trazado 3" d="M1849.663,38.154c2.579-1.236,14.718.01,18.927-.459l-.145-8.5-30.52-.006-.066,42.023,30.866.011v-9.3l-19.348-.017-.222-8.106,17.846-.09.3-7.9-18.022-.052V39.1c.222-.983.021-.443.383-.95Zm18.783-8.96.144,8.5c-4.209.469-16.348-.777-18.927.459l17.546.1c2.86-.11.7-.027,1.381-.556a13,13,0,0,0,.26-4.1c0-1.526.278-3.544-.4-4.4-.505-.489.986-.407-1.236-.49l-27.5-.034c-1.841.117-.835-.091-1.781.518l30.52.005Z" transform="translate(-1770.481 -27.619)" fill-rule="evenodd"/>
      <path id="Trazado_4" data-name="Trazado 4" d="M3693.05,393.466c0-5.176-.265-8.443,5.262-8.376,4.789.058,5.256,3.8,5.188,8.376-.076,5.148.058,7.913-5.2,7.965C3693.1,401.482,3693.05,398.435,3693.05,393.466Zm.968-14.977c-11.472.44-10.839,8.492-10.315,19.5.506,10.632,9.132,10.784,19.192,10,4.905-.383,7.673-1.527,9.06-5.365,1.063-2.941,1.086-10.809.849-14.139-.749-10.513-8.869-10.373-18.785-9.993Z" transform="translate(-3548.429 -364.496)" fill-rule="evenodd"/>
      <path id="Trazado_5" data-name="Trazado 5" d="M5560.7,396.671c-.43-2.91-.521-9.983,1.241-11.56.226-.2,7.541-3.518,8.776,3.063.558,2.966.536,10.023-1.357,11.556C5568.586,400.357,5561.6,402.731,5560.7,396.671Zm2.061-19.108c-12.164.461-12.042,6.732-11.594,18.223.44,11.321,6.324,12.177,17.576,11.478,5.391-.334,8.328-.8,10.272-4.619,1.45-2.85,1.515-10.192,1.333-13.65-.581-11.129-6.924-11.836-17.587-11.431Z" transform="translate(-5347.517 -363.643)" fill-rule="evenodd"/>
      <path id="Trazado_6" data-name="Trazado 6" d="M4719.228,1748.1c1.516-1.186,4.981-1.094,7.007-.368,2.335.837,1.978,4.226.458,5.237-1.36.9-5.369,1.073-6.943.406a2.748,2.748,0,0,1-1.679-2.588c-.121-1.873.269-1.992,1.157-2.687Zm-9.1-9.823a20.443,20.443,0,0,0,7.258.355c4.148-.467.02-2.227,4.1-3.094,1.95-.415,5.268-.461,6.055,1.484.56,1.382.311,5.527.279,7.285-2.137-.637-1-.7-2.75-1.715-1.539-.892-17.623-3.866-16.443,9.581.462,5.264,3.066,7.09,8.268,7.476,9.561.71,9.813-3.163,11.307-4l-.071,3.808,9.136.008c.315-5.258.128-11.442.109-16.786-.02-5.647-.448-10.2-5.179-11.695-4.758-1.5-18.015-2.136-20.7,1.334a8.256,8.256,0,0,0-1.581,5.259c.012.083.088.413.1.351s.061.237.114.346Z" transform="translate(-4535.941 -1666.36)" fill="#f49101" fill-rule="evenodd"/>
      <path id="Trazado_7" data-name="Trazado 7" d="M4624.51,405.161l9.53-.049c-.063-4.427.053-8.906.106-13.254.057-4.608-.746-8.945,4.463-9.188,5.729-.267,4.766,3.793,4.761,8.737,0,4.576.08,9.188.043,13.754l9.535-.052c-.31-16.338,3.873-30.155-10.723-29.808-6.863.164-5.483,3.493-8.485,5.25l.227-5.146-9.327-.1-.13,29.859Z" transform="translate(-4454.969 -361.536)" fill-rule="evenodd"/>
      <path id="Trazado_8" data-name="Trazado 8" d="M3771.08,1732.368c-.188,5.408-1,22.06,1.345,25.843,3,4.851,12.725,5.563,16.145.236,0,0,.754-1.1.774-1.12.8-.9-.522.083.874-.741l-.1,5.211,9.11-.1-.042-29.342-9.36-.118q.038,7-.043,14.007c-.051,4.728.066,8.223-4.733,8.552-5.379.368-4.564-4.627-4.559-9.3,0-4.391.016-8.87-.173-13.192l-9.235.059Z" transform="translate(-3632.549 -1668.733)" fill="#f49101" fill-rule="evenodd"/>
      <path id="Trazado_9" data-name="Trazado 9" d="M5650.2,1745.786l.7,3.8c-2.594,1.716-6.067,1.711-9.2.986l-.974-2.916-9.194-.02c-.763,7.465,3.986,8.75,10.417,9.2,10.188.718,19.27-.5,18.111-11.473-.7-6.585-7.261-6.562-13.157-6.926-3.523-.217-5.934.3-6.343-3.433,1.146-1.914,2.193-2.076,5.021-2.055,3.694.028,3.067.429,4.395,2.424,2.636.083,6.671.612,8.818-.369.225-6.021-4.538-7.477-10.086-7.933-4.125-.339-12.821.006-15.3,2.519-2.758,2.8-2.535,11.491.715,13.718,3.065,2.1,11.909,1.821,16.078,2.472Z" transform="translate(-5424.993 -1663.654)" fill="#f49101" fill-rule="evenodd"/>
      <path id="Trazado_10" data-name="Trazado 10" d="M2839.847,393.148c-1.156-.026-7.982-.413-8.765.419-1.7,2.725.188,4.8-5.066,4.534-3.785-.192-4.62-1.88-4.695-5.578-.154-7.659-.08-12.6,8.858-9.6l.678,3.358,9.05,0c.333-10.317-6.584-11.528-16.146-11.213-9.74.321-11.979,5.347-12.1,15.169-.131,10.639,2.315,13.945,12.613,14.765,4.106.327,8.962.593,12.226-1.556,2.121-1.4,4.427-6.32,3.346-10.3Z" transform="translate(-2708.578 -361.279)" fill-rule="evenodd"/>
      <path id="Trazado_11" data-name="Trazado 11" d="M3014.84,1727.531l-.247-3.8-8.882-.071-.181,29.307,9.41.109c.9-14.627-2.728-23.626,5.661-22.252a14.679,14.679,0,0,1,1.071,5.194l8.028.2a21.7,21.7,0,0,0-.394-7.442c-.565-2.749-.895-3.943-3.238-4.838-7.376-2.816-9.685,3.227-11.228,3.593Z" transform="translate(-2895.343 -1660.017)" fill="#f49101" fill-rule="evenodd"/>
      <path id="Trazado_12" data-name="Trazado 12" d="M367.981,1515.47c2.115,1.233,3.444-1.045,6.409,5.615,1.443,3.244,2.62,5.476,4.655,7.526,5.321,5.362,13.3,3.048,13.446-5.376-1.095.238-2.865,2.093-2.627,3.241.508,2.44.673-1.726.5,1.644-.479,1.209-8.409,6.2-13.454-3.25-1.066-2-4.15-8.99-5.689-10.534-1.284-1.288-3.107-1.112-3.244,1.134Z" transform="translate(-354.489 -1458.043)" fill="#fffefe" fill-rule="evenodd"/>
      <path id="Trazado_13" data-name="Trazado 13" d="M797.168,978.251c-3.5-9.142-7.532-10.017-9.358-17.488-.577-2.361.2-6.784-.365-8.113-2.82,5.038-.339,10.139,2.144,13.982l5.8,8.614c1.3,2.449.5,2.286,1.785,3Z" transform="translate(-757.368 -917.724)" fill="#fffefe" fill-rule="evenodd"/>
      <path id="Trazado_14" data-name="Trazado 14" d="M974.12,507.257l2.436-3.055c1.006-1.822,2.12-4.751,1.444-6.632-.906,2.085-.754,4.44-2.41,6.984l-1.11,1.786c-.068.147-.123.322-.179.447s-.117.314-.181.469Z" transform="translate(-938.407 -479.328)" fill="#d5d8d9" fill-rule="evenodd"/>
      <path id="Trazado_15" data-name="Trazado 15" d="M1122.263,1353.058a6.681,6.681,0,0,0-2.366-3.688C1119.836,1351.058,1120.953,1352.792,1122.263,1353.058Z" transform="translate(-1078.837 -1299.9)" fill="#d5d8d9" fill-rule="evenodd"/>
      <path id="Trazado_16" data-name="Trazado 16" d="M526.251,391.49c.334-.385.247-.119.538-.778l1.523-3.1c-1.749.275-2.274,1.666-2.062,3.88Z" transform="translate(-506.915 -373.399)" fill="#d5d8d9" fill-rule="evenodd"/>
      <path id="Trazado_17" data-name="Trazado 17" d="M709.107,976.978c1.054-1.4-.112-3.246-.917-4.058Z" transform="translate(-682.227 -937.251)" fill="#fffefe" fill-rule="evenodd"/>
    </g>
  </g>
</svg>
