<svg xmlns="http://www.w3.org/2000/svg" xmlns:xlink="http://www.w3.org/1999/xlink" width="166.55" height="192.877" viewBox="0 0 166.55 192.877">
  <defs>
    <filter id="Trazado_255" x="0" y="0" width="166.55" height="187.231" filterUnits="userSpaceOnUse">
      <feOffset dy="4" input="SourceAlpha"/>
      <feGaussianBlur stdDeviation="3" result="blur"/>
      <feFlood flood-opacity="0.51"/>
      <feComposite operator="in" in2="blur"/>
      <feComposite in="SourceGraphic"/>
    </filter>
  </defs>
  <g id="Grupo_159" data-name="Grupo 159" transform="translate(322.3 -274)">
    <ellipse id="Elipse_43" data-name="Elipse 43" cx="41.212" cy="18.646" rx="41.212" ry="18.646" transform="translate(-281.553 429.584)" fill="#22e0e6"/>
    <g transform="matrix(1, 0, 0, 1, -322.3, 274)" filter="url(#Trazado_255)">
      <g id="Trazado_255-2" data-name="Trazado 255" transform="translate(9 5)" fill="#224f72">
        <path d="M 74.19963836669922 166.7307739257812 C 73.96199798583984 166.7307739257812 72.59696960449219 166.6328735351562 69.05171203613281 164.6999359130859 C 66.35287475585938 163.2284851074219 63.0367317199707 161.0425872802734 59.46182632446289 158.3785552978516 C 51.41351699829102 152.3809356689453 42.65520858764648 144.4678039550781 34.80025482177734 136.0968017578125 C 30.3504467010498 131.3546295166016 26.23392295837402 126.5153732299805 22.56504249572754 121.7134399414062 C 18.5558032989502 116.4659881591797 15.07601833343506 111.2536773681641 12.22239971160889 106.2212982177734 C 5.771090030670166 94.84432220458984 2.499994516372681 84.43241882324219 2.499994516372681 75.27477264404297 C 2.499994516372681 65.44501495361328 4.398922920227051 55.91091918945312 8.144018173217773 46.93732070922852 C 9.943803787231445 42.62487030029297 12.17147064208984 38.4654426574707 14.76513767242432 34.57460784912109 C 17.33418464660645 30.72072792053223 20.28449440002441 27.09677505493164 23.53411293029785 23.80339431762695 C 26.7831859588623 20.51058387756348 30.35804176330566 17.52129936218262 34.159423828125 14.91858386993408 C 37.99594879150391 12.29177474975586 42.09701919555664 10.03577518463135 46.34863662719727 8.213274955749512 C 55.19258880615234 4.422226905822754 64.58830261230469 2.500012874603271 74.2747802734375 2.500012874603271 C 83.96125793457031 2.500012874603271 93.35697174072266 4.422226905822754 102.2009201049805 8.213274955749512 C 106.4525451660156 10.03577518463135 110.5536117553711 12.29177474975586 114.39013671875 14.91858386993408 C 118.191520690918 17.52129936218262 121.7663726806641 20.51058387756348 125.0154495239258 23.80339431762695 C 128.2650604248047 27.09677505493164 131.2153778076172 30.72072792053223 133.784423828125 34.57460784912109 C 136.3780822753906 38.4654426574707 138.6057586669922 42.62487030029297 140.4055480957031 46.93732070922852 C 144.150634765625 55.91091918945312 146.049560546875 65.44501495361328 146.049560546875 75.27477264404297 C 146.049560546875 84.44686889648438 142.7653961181641 94.85894012451172 136.2882995605469 106.2217483520508 C 133.4255676269531 111.2438201904297 129.9333801269531 116.4464874267578 125.9087066650391 121.6851806640625 C 122.2314682006836 126.4716567993164 118.1024017333984 131.3000183105469 113.63623046875 136.0361022949219 C 105.7919235229492 144.3544616699219 97.01902008056641 152.2575378417969 88.93356323242188 158.2894897460938 C 85.36418151855469 160.9523162841797 82.05097198486328 163.1484222412109 79.35211181640625 164.6403503417969 C 75.80785369873047 166.599609375 74.45394897460938 166.7252807617188 74.21852111816406 166.7305908203125 L 74.19963836669922 166.7307739257812 Z" stroke="none"/>
        <path d="M 74.2747802734375 4.999984741210938 C 64.92885589599609 4.999984741210938 55.86454010009766 6.854171752929688 47.33362579345703 10.51103210449219 C 43.23141479492188 12.26948547363281 39.27417755126953 14.4464111328125 35.57177734375 16.98138427734375 C 31.90201568603516 19.49398803710938 28.45069885253906 22.3800048828125 25.31367492675781 25.55928039550781 C 22.17549133300781 28.73970031738281 19.32633972167969 32.23942565917969 16.84530639648438 35.96127319335938 C 14.34051513671875 39.71878051757812 12.18919372558594 43.73558807373047 10.45114135742188 47.90016937255859 C 6.834014892578125 56.56714630126953 4.999984741210938 65.77729797363281 4.999984741210938 75.27477264404297 C 4.999984741210938 83.88829803466797 8.087142944335938 93.75330352783203 14.17570495605469 104.5957489013672 C 16.9129638671875 109.4702758789062 20.25875854492188 114.5279846191406 24.12012481689453 119.6283569335938 C 27.67017364501953 124.317512512207 31.66185760498047 129.0525665283203 35.98430633544922 133.7019653320312 C 43.61204528808594 141.9066467285156 52.18535614013672 149.7367553710938 60.12496185302734 155.7498321533203 C 63.61851501464844 158.3956909179688 66.88414764404297 160.6006774902344 69.56875610351562 162.1264038085938 C 72.45180511474609 163.7648773193359 73.81398773193359 164.1370086669922 74.18353271484375 164.2149353027344 C 74.55506896972656 164.1305389404297 75.916259765625 163.7381896972656 78.80127716064453 162.0810089111328 C 81.48796081542969 160.5377502441406 84.75335693359375 158.3242797851562 88.24446105957031 155.6798858642578 C 96.22270202636719 149.6366424560547 104.8150482177734 141.8161926269531 112.4386444091797 133.6591644287109 C 116.7793045043945 129.0148010253906 120.7854919433594 124.2891159057617 124.3459396362305 119.6133804321289 C 128.2243804931641 114.5199890136719 131.5841522216797 109.4700927734375 134.3318634033203 104.6039047241211 C 140.4482727050781 93.77175140380859 143.5495758056641 83.90401458740234 143.5495758056641 75.27477264404297 C 143.5495758056641 65.77729797363281 141.7155456542969 56.56714630126953 138.0984191894531 47.90016937255859 C 136.3603363037109 43.73558807373047 134.2090454101562 39.71878051757812 131.7042541503906 35.96127319335938 C 129.2232360839844 32.23942565917969 126.3740386962891 28.73970031738281 123.2358856201172 25.55928039550781 C 120.0988616943359 22.3800048828125 116.6475143432617 19.49398803710938 112.977783203125 16.98138427734375 C 109.275390625 14.4464111328125 105.3181228637695 12.26948547363281 101.2159423828125 10.51103210449219 C 92.68498992919922 6.854171752929688 83.62067413330078 4.999984741210938 74.2747802734375 4.999984741210938 M 74.2747802734375 -1.52587890625e-05 C 115.2955932617188 -1.52587890625e-05 148.5495758056641 33.70167541503906 148.5495758056641 75.27477264404297 C 148.5495758056641 116.8478851318359 85.05580139160156 168.9873046875 74.2747802734375 169.2299346923828 C 74.25043487548828 169.2304840087891 74.22451782226562 169.2307739257812 74.19963073730469 169.2307739257812 C 63.20600128173828 169.2307739257812 -1.52587890625e-05 116.7539978027344 -1.52587890625e-05 75.27477264404297 C -1.52587890625e-05 33.70167541503906 33.25393676757812 -1.52587890625e-05 74.2747802734375 -1.52587890625e-05 Z" stroke="none" fill="#22e0e6"/>
      </g>
    </g>
    <g id="Grupo_110" data-name="Grupo 110" transform="translate(-1043.43 -271.495)">
      <g id="reparacion-de-autos" transform="translate(761.877 577.983)">
        <g id="Grupo_69" data-name="Grupo 69" transform="translate(0)">
          <path id="Trazado_138" data-name="Trazado 138" d="M78.987,29.075c-.608-5.35-15.013,0-15.013,0l-.849,7.613a10.732,10.732,0,0,0-.969-.5L58.517,20.309C57.183,12.75,51.478,7.182,43.163,7.468H21.8a17.385,17.385,0,0,1-.6,2.584h23.4a10.654,10.654,0,0,1,10.516,8.28L59.03,34.007c-.246-.007-.489-.031-.738-.031H12.978l.012,15.281H41.061v3.416H12.992l0,1H40.777v3.424H12.995L13,69.933H42.976v8.131c0,3.3,4.088,5.986,9.126,5.986s9.119-2.681,9.119-5.986V68.992c4.305-1.627,7.3-5.185,7.3-9.325V45.12A9.685,9.685,0,0,0,63.9,37.161l15.089-.816S79.592,34.421,78.987,29.075ZM61.7,56.84H45.232V49.009H61.7V56.84Z" transform="translate(16.838 10.174)" fill="#fff"/>
          <rect id="Rect치ngulo_22" data-name="Rect치ngulo 22" width="0.418" height="3.424" transform="translate(29.414 63.843)" fill="#fff"/>
          <rect id="Rect치ngulo_23" data-name="Rect치ngulo 23" width="0.13" height="3.416" transform="translate(29.7 59.432)" fill="#fff"/>
          <path id="Trazado_139" data-name="Trazado 139" d="M35.761,15.34A17.692,17.692,0,0,0,26.859,0V14.169l-8.8,5.079-8.8-5.1V0a17.685,17.685,0,0,0,.813,31.124V89.477a8.35,8.35,0,1,0,16.7,0l-.035-58.727A17.691,17.691,0,0,0,35.761,15.34ZM20.26,93.175a3.186,3.186,0,1,1-.007-4.513A3.194,3.194,0,0,1,20.26,93.175Z" transform="translate(-0.367)" fill="#fff"/>
        </g>
      </g>
    </g>
  </g>
</svg>
