<svg xmlns="http://www.w3.org/2000/svg" xmlns:xlink="http://www.w3.org/1999/xlink" width="143.665" height="185.93" viewBox="0 0 143.665 185.93">
  <defs>
    <filter id="Trazado_235" x="0" y="0" width="143.665" height="169.864" filterUnits="userSpaceOnUse">
      <feOffset dy="2" input="SourceAlpha"/>
      <feGaussianBlur stdDeviation="1.5" result="blur"/>
      <feFlood flood-opacity="0.329"/>
      <feComposite operator="in" in2="blur"/>
      <feComposite in="SourceGraphic"/>
    </filter>
  </defs>
  <g id="Grupo_161" data-name="Grupo 161" transform="translate(-52.199 -273.785)">
    <g id="Grupo_157" data-name="Grupo 157" transform="translate(-564.526 -1.715)">
      <ellipse id="Elipse_23" data-name="Elipse 23" cx="41.212" cy="18.646" rx="41.212" ry="18.646" transform="translate(647.346 424.137)" fill="#22e0e6"/>
      <g transform="matrix(1, 0, 0, 1, 616.73, 275.5)" filter="url(#Trazado_235)">
        <path id="Trazado_235-2" data-name="Trazado 235" d="M67.332,0a67.356,67.356,0,0,1,67.332,67.38c0,37.213-62.6,93.485-67.332,93.485S0,104.593,0,67.38A67.356,67.356,0,0,1,67.332,0Z" transform="translate(4.5 2.5)" fill="#f49101"/>
      </g>
      <path id="Trazado_228" data-name="Trazado 228" d="M338.51,219.447c.166-2.74,2.391-2.955,3.958-1.384,1.878,1.884,5.641,10.418,6.941,12.854,6.156,11.53,15.832,5.441,16.416,3.966.208-4.112.006.971-.613-2.006-.292-1.4,1.869-3.663,3.205-3.954-.177,10.28-9.914,13.1-16.407,6.56-2.483-2.5-3.919-5.226-5.68-9.184-3.618-8.127-5.24-5.347-7.82-6.852Zm32.1,3.783c-1.569-.877-.588-.678-2.177-3.666l-7.071-10.51c-3.029-4.69-6.057-10.914-2.616-17.061.693,1.621-.258,7.019.446,9.9,2.228,9.116,7.142,10.183,11.419,21.339Zm1.538-13.491a8.149,8.149,0,0,1,2.887,4.5C373.437,213.914,372.073,211.8,372.148,209.739Zm-18.42-16.84c.983.991,2.405,3.242,1.119,4.951Zm11.9-9.445c.078-.188.151-.411.221-.572s.135-.367.218-.546l1.354-2.179c2.02-3.1,1.836-5.979,2.941-8.522.826,2.295-.535,5.869-1.762,8.092l-2.973,3.727Zm-12.5-18.268c10.075-3.331,15.092,12.228,4.834,15.464C347.84,183.841,342.878,168.572,353.123,165.186Zm-7.482,6.264c-.259-2.7.382-4.4,2.515-4.734L346.3,170.5c-.355.8-.25.479-.657.949Zm2.952,16.228c.364,17.487-3.6,13.824,8.327,30.794,2.174,3.095,3.778,4.967,3.092,10.287-1.126,8.728-5.955,9.4-11.084-.643-2.353-4.607-6.47-17.349-11.768-9.277-.213,2.981.793,5.8.948,8.989.451,9.252-1.223,14.616,8.2,22.169,10.132,8.116,23.054,2.7,27.939-4.62,9.364-14.038,7.022-31.376-6.522-43.228-3.334-2.918-6.436-6.688-6.708-13.581,18.079-7.374,12.3-31.11-4.453-32.153-20.134-1.254-23.187,26.561-7.976,31.266Z" transform="translate(329.192 142.846)" fill-rule="evenodd"/>
      <path id="Trazado_229" data-name="Trazado 229" d="M367.981,1515.9c2.581,1.505,4.2-1.275,7.82,6.853,1.761,3.958,3.2,6.682,5.68,9.184,6.493,6.542,16.23,3.72,16.407-6.56-1.336.291-3.5,2.554-3.205,3.954.62,2.977.822-2.1.613,2.007-.585,1.474-10.261,7.563-16.416-3.967-1.3-2.436-5.063-10.97-6.942-12.854-1.567-1.571-3.791-1.356-3.958,1.384Z" transform="translate(299.721 -1153.604)" fill="#fffefe" fill-rule="evenodd"/>
      <path id="Trazado_230" data-name="Trazado 230" d="M799.585,983.888c-4.276-11.156-9.191-12.222-11.419-21.338-.7-2.88.247-8.278-.446-9.9-3.441,6.147-.413,12.371,2.616,17.061l7.072,10.51c1.59,2.988.608,2.79,2.177,3.667Z" transform="translate(-99.782 -617.813)" fill="#fffefe" fill-rule="evenodd"/>
      <path id="Trazado_231" data-name="Trazado 231" d="M974.12,509.39l2.973-3.727c1.227-2.223,2.587-5.8,1.762-8.092-1.106,2.544-.921,5.418-2.942,8.522l-1.355,2.179c-.083.179-.15.392-.218.546s-.143.383-.22.572Z" transform="translate(-279.304 -183.09)" fill="#d5d8d9" fill-rule="evenodd"/>
      <path id="Trazado_232" data-name="Trazado 232" d="M1122.786,1353.869a8.157,8.157,0,0,0-2.889-4.5C1119.823,1351.429,1121.187,1353.544,1122.786,1353.869Z" transform="translate(-418.557 -996.785)" fill="#d5d8d9" fill-rule="evenodd"/>
      <path id="Trazado_233" data-name="Trazado 233" d="M526.261,392.345c.407-.47.3-.145.657-.949l1.859-3.785c-2.134.336-2.774,2.033-2.515,4.734Z" transform="translate(148.572 -78.049)" fill="#d5d8d9" fill-rule="evenodd"/>
      <path id="Trazado_234" data-name="Trazado 234" d="M709.309,977.872c1.286-1.71-.137-3.961-1.119-4.952Z" transform="translate(-25.27 -637.176)" fill="#fffefe" fill-rule="evenodd"/>
    </g>
  </g>
</svg>
