<svg xmlns="http://www.w3.org/2000/svg" xmlns:xlink="http://www.w3.org/1999/xlink" width="166.55" height="192.877" viewBox="0 0 166.55 192.877">
  <defs>
    <filter id="Trazado_276" x="0" y="0" width="166.55" height="187.231" filterUnits="userSpaceOnUse">
      <feOffset dy="4" input="SourceAlpha"/>
      <feGaussianBlur stdDeviation="3" result="blur"/>
      <feFlood flood-opacity="0.51"/>
      <feComposite operator="in" in2="blur"/>
      <feComposite in="SourceGraphic"/>
    </filter>
  </defs>
  <g id="Grupo_160" data-name="Grupo 160" transform="translate(132.3 -274)">
    <ellipse id="Elipse_44" data-name="Elipse 44" cx="41.212" cy="18.646" rx="41.212" ry="18.646" transform="translate(-91.553 429.584)" fill="#717171"/>
    <g transform="matrix(1, 0, 0, 1, -132.3, 274)" filter="url(#Trazado_276)">
      <path id="Trazado_276-2" data-name="Trazado 276" d="M74.275,0C115.3,0,148.55,33.7,148.55,75.275S85.056,168.987,74.275,169.23,0,116.848,0,75.275,33.254,0,74.275,0Z" transform="translate(9 5)" fill="#224f72"/>
    </g>
    <g id="Grupo_158" data-name="Grupo 158" transform="translate(-853.43 -271.495)">
      <g id="reparacion-de-autos" transform="translate(761.877 577.983)">
        <g id="Grupo_69" data-name="Grupo 69" transform="translate(0)">
          <path id="Trazado_138" data-name="Trazado 138" d="M78.987,29.075c-.608-5.35-15.013,0-15.013,0l-.849,7.613a10.732,10.732,0,0,0-.969-.5L58.517,20.309C57.183,12.75,51.478,7.182,43.163,7.468H21.8a17.385,17.385,0,0,1-.6,2.584h23.4a10.654,10.654,0,0,1,10.516,8.28L59.03,34.007c-.246-.007-.489-.031-.738-.031H12.978l.012,15.281H41.061v3.416H12.992l0,1H40.777v3.424H12.995L13,69.933H42.976v8.131c0,3.3,4.088,5.986,9.126,5.986s9.119-2.681,9.119-5.986V68.992c4.305-1.627,7.3-5.185,7.3-9.325V45.12A9.685,9.685,0,0,0,63.9,37.161l15.089-.816S79.592,34.421,78.987,29.075ZM61.7,56.84H45.232V49.009H61.7V56.84Z" transform="translate(16.838 10.174)" fill="#fff"/>
          <rect id="Rect치ngulo_22" data-name="Rect치ngulo 22" width="0.418" height="3.424" transform="translate(29.414 63.843)" fill="#fff"/>
          <rect id="Rect치ngulo_23" data-name="Rect치ngulo 23" width="0.13" height="3.416" transform="translate(29.7 59.432)" fill="#fff"/>
          <path id="Trazado_139" data-name="Trazado 139" d="M35.761,15.34A17.692,17.692,0,0,0,26.859,0V14.169l-8.8,5.079-8.8-5.1V0a17.685,17.685,0,0,0,.813,31.124V89.477a8.35,8.35,0,1,0,16.7,0l-.035-58.727A17.691,17.691,0,0,0,35.761,15.34ZM20.26,93.175a3.186,3.186,0,1,1-.007-4.513A3.194,3.194,0,0,1,20.26,93.175Z" transform="translate(-0.367)" fill="#fff"/>
        </g>
      </g>
    </g>
  </g>
</svg>
